<svg id="Layer_1" data-name="Layer 1" xmlns="http://www.w3.org/2000/svg" viewBox="0 0 332.56 80.56"><defs><style>.cls-1{fill:#8c8c8c;}.cls-1,.cls-2,.cls-3,.cls-4,.cls-5,.cls-7{fill-rule:evenodd;}.cls-2{fill:#fff;}.cls-3{fill:#a5a3a4;}.cls-4{fill:#787b80;}.cls-5,.cls-6{fill:#0b110f;}.cls-7{fill:#000101;}</style></defs><title>Artboard 1bb</title><path class="cls-1" d="M226,0h106.6V80.56H226l1.27-1.48a9.17,9.17,0,0,0,0-12.86c-1.05-1.27-2-2.32-2-4.43a5.86,5.86,0,0,1,2-4.43,9.16,9.16,0,0,0,0-12.86c-1.05-1.27-2-2.32-2-4.43h0c0-1.58.84-2.64,2-3.9a9.15,9.15,0,0,0,2.64-6.43c0-3.27-1.48-5-2.64-6.43-1.05-1.27-2-2.32-2-4.43a5.86,5.86,0,0,1,2-4.43,9.16,9.16,0,0,0,0-12.86C226.59.85,226,0,226,0Z"/><path class="cls-2" d="M224.06,0H0V80.56H226l1.27-1.48a9.17,9.17,0,0,0,0-12.86c-1.05-1.27-2-2.32-2-4.43a5.86,5.86,0,0,1,2-4.43,9.16,9.16,0,0,0,0-12.86c-1.05-1.27-2-2.32-2-4.43h0c0-1.58.84-2.64,2-3.9a9.15,9.15,0,0,0,2.64-6.43c0-3.27-1.48-5-2.64-6.43-1.05-1.27-2-2.32-2-4.43a5.86,5.86,0,0,1,2-4.43,9.16,9.16,0,0,0,0-12.86C226.59.85,226,0,226,0Z"/><path class="cls-3" d="M227.85,35.95a8.94,8.94,0,0,0,2.64-6.43c0-3.27-1.48-5-2.64-6.43-1.05-1.27-2-2.32-2-4.43a5.86,5.86,0,0,1,2-4.43,9.16,9.16,0,0,0,0-12.86A14.85,14.85,0,0,1,226.49,0h-1.06c.07.09.66.88,1.26,1.57a9.17,9.17,0,0,1,0,12.86,5.86,5.86,0,0,0-2,4.43c0,2.11.95,3.16,2,4.43,1.16,1.48,2.64,3.16,2.64,6.43a9.15,9.15,0,0,1-2.64,6.43c-1.16,1.27-2,2.32-2,3.9h0c0,2.11.95,3.16,2,4.43a9.17,9.17,0,0,1,0,12.86,5.86,5.86,0,0,0-2,4.43c0,2.11.95,3.16,2,4.43a9.17,9.17,0,0,1,0,12.86l-1.27,1.48h1.16l1.27-1.48a9.16,9.16,0,0,0,0-12.86c-1.05-1.27-2-2.32-2-4.43a5.86,5.86,0,0,1,2-4.43,9.15,9.15,0,0,0,2.64-6.43c0-3.27-1.48-5-2.64-6.43-1.05-1.27-2-2.32-2-4.43h0C225.85,38.27,226.8,37.21,227.85,35.95Z"/><path class="cls-4" d="M33.11,35.32h7.8V57.15h-7.8Z"/><path class="cls-4" d="M37,23.41a4,4,0,0,1,0,8,3.92,3.92,0,0,1-3.9-4A4,4,0,0,1,37,23.41Z"/><polygon class="cls-5" points="76.55 24.15 76.55 30.37 67.17 30.37 67.17 56.52 60.1 56.52 60.1 30.37 50.72 30.37 50.72 24.15 76.55 24.15"/><rect class="cls-6" x="81.08" y="24.15" width="7.06" height="32.37"/><path class="cls-5" d="M109.55,57.15c-5.06,0-9-1.48-11.6-4.43s-4-7.06-4-12.44a19.31,19.31,0,0,1,1.27-7.17,14.19,14.19,0,0,1,3.37-5.27,12.74,12.74,0,0,1,5.06-3.27A17.75,17.75,0,0,1,110,23.41a18.13,18.13,0,0,1,3.58.32,18.6,18.6,0,0,1,2.85.74,12.72,12.72,0,0,1,2,.84c.53.32.95.53,1.16.63l-2,5.9a20.37,20.37,0,0,0-3.37-1.37,13.9,13.9,0,0,0-4.32-.53,11,11,0,0,0-3.16.53A7.72,7.72,0,0,0,104,32.27a7.94,7.94,0,0,0-1.9,3.16,12.46,12.46,0,0,0-.74,4.74,14,14,0,0,0,.53,4.22,10.92,10.92,0,0,0,1.48,3.37A7.09,7.09,0,0,0,106.07,50a9.85,9.85,0,0,0,4.11.84,20.74,20.74,0,0,0,2.74-.21c.84-.11,1.58-.32,2.21-.42s1.16-.42,1.69-.63a7,7,0,0,0,1.27-.63l1.9,5.8a16.56,16.56,0,0,1-4.22,1.69A22.38,22.38,0,0,1,109.55,57.15Z"/><path class="cls-5" d="M142.87,56.52c-.63-1.05-1.37-2.21-2.21-3.37s-1.79-2.43-2.74-3.69a33.48,33.48,0,0,0-3.16-3.59,29.57,29.57,0,0,0-3.27-3.06V56.52h-7.06V24.15h7.06V36.27c1.79-2,3.69-4,5.48-6.22s3.59-4.11,5.17-6h8.33c-2.11,2.64-4.22,5.17-6.43,7.59s-4.43,4.85-6.75,7.28a50.65,50.65,0,0,1,7.17,7.7,88.34,88.34,0,0,1,6.64,9.81h-8.22Z"/><polygon class="cls-5" points="155.21 56.52 155.21 24.15 176.3 24.15 176.3 30.26 162.27 30.26 162.27 36.59 174.72 36.59 174.72 42.6 162.27 42.6 162.27 50.4 177.35 50.4 177.35 56.52 155.21 56.52"/><polygon class="cls-5" points="205.61 24.15 205.61 30.37 196.23 30.37 196.23 56.52 189.16 56.52 189.16 30.37 179.78 30.37 179.78 24.15 205.61 24.15"/><path class="cls-7" d="M282.08,24.64V45.35a10.6,10.6,0,0,1-3.23,8.16q-3.23,3-8.82,3t-8.75-2.91a10.43,10.43,0,0,1-3.3-8V24.64h6.48V45.4a6,6,0,0,0,1.48,4.5A5.68,5.68,0,0,0,270,51.31q5.46,0,5.55-5.74V24.64Z"/><polygon class="cls-7" points="294.26 50.88 310.11 50.88 310.11 56.09 286.16 56.09 286.16 52.29 301.71 29.89 286.18 29.89 286.18 24.64 309.77 24.64 309.77 28.36 294.26 50.88"/></svg>